<svg width="149" height="90" viewBox="0 0 149 90" fill="none" xmlns="http://www.w3.org/2000/svg">
<path d="M84.5712 73.0377C84.5712 73.1042 84.5712 73.1707 84.5712 73.1707C84.5712 73.1707 84.5712 73.1042 84.5712 73.0377ZM84.5712 73.0377C84.5712 73.1042 84.5712 73.1707 84.5712 73.1707C84.5712 73.1707 84.5712 73.1042 84.5712 73.0377ZM84.5712 73.0377C84.5712 73.1042 84.5712 73.1707 84.5712 73.1707C84.5712 73.1707 84.5712 73.1042 84.5712 73.0377ZM84.5712 73.0377C84.5712 73.1042 84.5712 73.1707 84.5712 73.1707C84.5712 73.1707 84.5712 73.1042 84.5712 73.0377ZM57.8926 68.1818V68.9135H58.026C58.0927 68.714 58.026 68.4479 57.8926 68.1818ZM84.5712 73.0377C84.5712 73.1042 84.5712 73.1707 84.5712 73.1707C84.5712 73.1707 84.5712 73.1042 84.5712 73.0377ZM84.5712 73.0377C84.5712 73.1042 84.5712 73.1707 84.5712 73.1707C84.5712 73.1707 84.5712 73.1042 84.5712 73.0377ZM57.8926 68.1818V68.9135H58.026C58.0927 68.714 58.026 68.4479 57.8926 68.1818ZM57.8926 68.1818V68.9135H58.026C58.0927 68.714 58.026 68.4479 57.8926 68.1818ZM84.5712 73.0377C84.5712 73.1042 84.5712 73.1707 84.5712 73.1707C84.5712 73.1707 84.5712 73.1042 84.5712 73.0377ZM84.5712 73.0377C84.5712 73.1042 84.5712 73.1707 84.5712 73.1707C84.5712 73.1707 84.5712 73.1042 84.5712 73.0377ZM57.8926 68.1818V68.9135H58.026C58.0927 68.714 58.026 68.4479 57.8926 68.1818ZM57.8926 68.1818V68.9135H58.026C58.0927 68.714 58.026 68.4479 57.8926 68.1818ZM84.5712 73.0377C84.5712 73.1042 84.5712 73.1707 84.5712 73.1707C84.5712 73.1707 84.5712 73.1042 84.5712 73.0377ZM84.5712 73.0377C84.5712 73.1042 84.5712 73.1707 84.5712 73.1707C84.5712 73.1707 84.5712 73.1042 84.5712 73.0377ZM57.8926 68.1818V68.9135H58.026C58.0927 68.714 58.026 68.4479 57.8926 68.1818ZM25.4781 69.5122C24.5443 68.5144 23.0103 68.4479 22.0098 69.3792C21.9432 69.4457 21.9432 69.4457 21.8765 69.5122C21.4096 69.9778 21.1428 70.643 21.1428 71.3747C21.1428 72.1064 21.4096 72.7716 21.8765 73.3038C22.3433 73.8359 23.0103 74.102 23.744 74.102C24.4109 74.102 25.0779 73.8359 25.5448 73.3038C26.0116 72.7716 26.2784 72.1064 26.2784 71.3747C26.2117 70.643 25.9449 69.9778 25.4781 69.5122ZM36.0161 68.3814C35.3491 68.3814 34.6155 68.6475 34.1486 69.1131C33.615 69.6452 33.3483 70.3769 33.4149 71.1087C33.4149 71.7738 33.6817 72.3725 34.1486 72.7716C34.6155 73.3038 35.3491 73.5698 36.0161 73.5698C36.8832 73.5698 37.7502 73.1707 38.3505 72.5055V69.4457C37.7502 68.7805 36.9499 68.3814 36.0161 68.3814ZM57.8926 68.1818V68.9135H58.026C58.0927 68.714 58.026 68.4479 57.8926 68.1818ZM84.5712 73.0377C84.5712 73.1042 84.5712 73.1707 84.5712 73.1707C84.5712 73.1707 84.5712 73.1042 84.5712 73.0377ZM84.5712 73.0377C84.5712 73.1042 84.5712 73.1707 84.5712 73.1707C84.5712 73.1707 84.5712 73.1042 84.5712 73.0377ZM57.8926 68.1818V68.9135H58.026C58.0927 68.714 58.026 68.4479 57.8926 68.1818ZM36.0161 68.3814C35.3491 68.3814 34.6155 68.6475 34.1486 69.1131C33.615 69.6452 33.3483 70.3769 33.4149 71.1087C33.4149 71.7738 33.6817 72.3725 34.1486 72.7716C34.6155 73.3038 35.3491 73.5698 36.0161 73.5698C36.8832 73.5698 37.7502 73.1707 38.3505 72.5055V69.4457C37.7502 68.7805 36.9499 68.3814 36.0161 68.3814ZM25.4781 69.5122C24.5443 68.5144 23.0103 68.4479 22.0098 69.3792C21.9432 69.4457 21.9432 69.4457 21.8765 69.5122C21.4096 69.9778 21.1428 70.643 21.1428 71.3747C21.1428 72.1064 21.4096 72.7716 21.8765 73.3038C22.3433 73.8359 23.0103 74.102 23.744 74.102C24.4109 74.102 25.0779 73.8359 25.5448 73.3038C26.0116 72.7716 26.2784 72.1064 26.2784 71.3747C26.2117 70.643 25.9449 69.9778 25.4781 69.5122ZM149 7.45011C148.733 5.12195 147.533 2.99335 145.598 1.59645C143.397 0 139.529 0 131.926 0H13.406C8.73724 0 6.40286 0 4.60206 0.864745C3.06804 1.72949 1.73411 2.99335 0.933751 4.52328C0 6.38581 0 8.71397 0 13.3703V76.5632C0 81.286 0 83.5477 0.933751 85.4102C1.73411 87.0067 3.00134 88.2705 4.60206 89.0687C6.40286 89.9335 8.73724 89.9335 13.406 89.9335H95.376C98.244 89.9335 99.6446 89.9335 100.912 89.5344C102.046 89.2018 103.046 88.6031 103.913 87.8049C104.914 86.9401 105.647 85.7428 107.048 83.2816L143.531 20.0887C147.399 13.4368 149.267 10.1774 149 7.45011ZM13.1392 13.1042H20.5425L35.6826 35.388L50.6893 13.1042H58.0927V18.6253L38.2171 48.0266H33.0148L23.4105 33.8581V54.745H13.1392V13.1042ZM58.0927 25.7428V54.745H47.8214V40.9091L58.0927 25.7428ZM17.0076 76.8958H13.2059V60.5987H17.0076V76.8958ZM27.9458 75.5654C26.812 76.6962 25.278 77.3614 23.6106 77.2949C21.9432 77.3614 20.4091 76.6962 19.2086 75.5654C16.9409 73.2373 16.9409 69.5122 19.2086 67.1175C20.4091 65.9867 22.0098 65.4545 23.6106 65.5211C25.2113 65.4545 26.7453 66.0532 27.9458 67.1175C30.2802 69.4457 30.2802 73.2373 27.9458 75.5654ZM40.4181 80.8204C39.2175 81.8182 37.6835 82.3503 36.0828 82.2838C34.5488 82.3503 33.0815 81.8847 31.8142 80.9534C30.7471 80.0887 30.0134 78.8248 29.9467 77.4279H33.6817C33.8151 78.5588 34.6155 79.0909 36.0161 79.0909C36.6164 79.0909 37.2167 78.8914 37.6168 78.4257C38.0837 77.9601 38.2838 77.3614 38.2171 76.7628V75.6985C37.2833 76.2306 36.2162 76.4302 35.1491 76.4302C33.6817 76.4302 32.2811 75.898 31.214 74.8337C30.1468 73.8359 29.5466 72.439 29.6133 70.9756C29.5466 69.4457 30.1468 67.9157 31.214 66.8514C32.2144 65.7871 33.6817 65.1885 35.1491 65.255C36.2162 65.255 37.2833 65.5211 38.2171 66.1197V65.7206H41.9521V76.6297C42.1522 78.2262 41.5519 79.7561 40.4181 80.8204ZM47.021 76.8958H43.286V65.7871H47.021V76.8958ZM46.6876 63.3925C46.2874 63.7916 45.6871 63.9911 45.0868 63.9911C44.5533 63.9911 44.0197 63.7916 43.5528 63.3925C43.0859 62.9934 42.8859 62.4612 42.8859 61.8625C42.8859 61.2639 43.1526 60.7317 43.5528 60.3326C43.953 59.9335 44.4866 59.7339 45.0868 59.7339C46.2207 59.6674 47.2211 60.5322 47.2878 61.663C47.2878 61.7295 47.2878 61.796 47.2878 61.8625C47.3545 62.4612 47.0877 62.9934 46.6876 63.3925ZM64.6289 77.2949C63.3617 77.3614 62.1611 76.8293 61.2941 75.898C60.427 74.9002 60.0269 73.5698 60.0936 72.306V68.98H58.0927C58.0927 69.1131 58.0927 69.2461 58.0927 69.3792H54.7578C54.7578 68.98 54.5577 68.5809 54.1576 68.4479C53.7574 68.2483 53.2905 68.1153 52.8236 68.1153C52.4901 68.1153 52.09 68.1818 51.7565 68.3149C51.5564 68.4479 51.423 68.6475 51.3563 68.9135C51.3563 69.3792 51.7565 69.6452 52.5568 69.7783L54.6244 70.1774C56.9588 70.5765 58.1594 71.7073 58.1594 73.5033C58.226 74.6341 57.6925 75.6984 56.692 76.2971C55.5582 76.9623 54.2243 77.3614 52.8903 77.2949C51.5564 77.3614 50.2225 76.9623 49.0886 76.2306C48.0882 75.4989 47.4212 74.3016 47.4212 73.0377L50.756 73.1042C50.8894 74.0355 51.6231 74.5011 52.8903 74.5011C53.2905 74.5011 53.6907 74.4346 54.0242 74.3016C54.291 74.235 54.4243 73.969 54.4243 73.7029C54.4243 73.3038 54.0909 73.0377 53.3572 72.9047L51.0895 72.5055C50.2225 72.439 49.3554 72.0399 48.6884 71.3747C48.0882 70.7761 47.7547 69.9778 47.8214 69.1131C47.7547 68.0488 48.2883 66.9845 49.1553 66.3858C50.2225 65.6541 51.4897 65.3215 52.7569 65.388C54.0242 65.388 55.2914 65.6541 56.3585 66.2528C57.0255 66.7184 57.5591 67.3836 57.8259 68.1153V65.6541H60.0269V61.8625H63.7619V65.6541H67.6303V68.847H63.7619V72.0399C63.7619 73.1042 64.3621 73.7029 65.5627 73.7029C66.2296 73.6364 66.8966 73.5698 67.4969 73.4368L67.897 76.5632C66.8966 77.0288 65.7628 77.2284 64.6289 77.2949ZM72.299 76.8958H68.6307V65.7871H72.299V76.8958ZM71.9655 63.3925C71.4987 63.7916 70.9651 63.9911 70.4315 63.9911C69.8979 63.9911 69.2977 63.7916 68.8975 63.3925C68.4973 62.9934 68.2305 62.4612 68.2305 61.8625C68.2305 61.2639 68.4973 60.7317 68.8975 60.3326C69.2977 59.9335 69.8312 59.7339 70.4315 59.7339C71.0318 59.6674 71.5654 59.9335 71.9655 60.3326C72.3657 60.7317 72.6325 61.2639 72.6325 61.8625C72.6325 62.4612 72.4324 63.0599 71.9655 63.3925ZM93.842 76.2971C92.7081 76.9623 91.3742 77.2949 90.0403 77.2949C88.7064 77.3614 87.3057 76.9623 86.1719 76.2306C85.1714 75.4989 84.5712 74.4346 84.5045 73.2373C84.2377 74.235 83.6374 75.1663 82.8371 75.898C81.7032 76.8293 80.3026 77.2949 78.902 77.2284C77.3013 77.2949 75.7005 76.6962 74.5667 75.5654C73.4329 74.5011 72.7659 72.9712 72.8326 71.3747C72.7659 69.7783 73.4329 68.2483 74.5667 67.184C75.7672 66.1197 77.3013 65.5211 78.902 65.5876C80.3026 65.5211 81.7032 65.9867 82.8371 66.918C83.9042 67.7827 84.5712 69.0466 84.7046 70.4435H81.1696C81.103 69.9778 80.8362 69.5787 80.436 69.2461C80.0358 68.9135 79.5022 68.7805 78.9687 68.7805C78.3017 68.7805 77.568 69.0466 77.1012 69.5122C76.1674 70.643 76.1674 72.2395 77.1012 73.3703C77.568 73.9024 78.3017 74.1685 78.9687 74.102C79.5022 74.102 80.0358 73.969 80.436 73.6364C80.8362 73.3038 81.103 72.8381 81.1696 72.3725H84.7046C84.7046 72.6386 84.6379 72.8381 84.5712 73.1042L87.8393 73.1707C87.9727 74.102 88.7063 74.5676 89.9736 74.5676C90.3738 74.5676 90.7739 74.5011 91.1741 74.3681C91.3742 74.235 91.5743 74.0355 91.5743 73.7694C91.5743 73.3703 91.1741 73.1042 90.4405 72.9712L88.1728 72.5721C87.3057 72.439 86.4387 72.0399 85.7717 71.4412C85.1714 70.8426 84.838 70.0443 84.9047 69.1796C84.9047 68.1153 85.4382 67.051 86.3053 66.4523C87.3724 65.7206 88.6397 65.388 89.9069 65.4545C91.1741 65.4545 92.3747 65.7206 93.4418 66.3193C94.4423 66.9845 95.1092 68.1153 95.1092 69.3126H91.7744C91.7744 68.9135 91.5076 68.5809 91.1741 68.3814C90.7739 68.1818 90.3071 68.0488 89.8402 68.0488C89.5067 68.0488 89.1065 68.1153 88.7731 68.2483C88.573 68.3814 88.4396 68.5809 88.4396 68.847C88.4396 69.3126 88.7731 69.5787 89.5734 69.7118L91.641 70.1109C93.9754 70.51 95.1759 71.6408 95.1759 73.4368C95.376 74.5676 94.8424 75.6984 93.842 76.2971ZM91.3742 38.6475L80.5027 54.6785H68.0971L75.5671 43.5698L83.4373 31.9956C85.8384 28.4035 85.1047 24.745 82.4369 23.0155C79.769 21.2195 76.1007 21.8847 74.2999 24.5455C72.4991 27.2062 73.1661 30.8647 75.8339 32.6608L77.4346 33.7916L71.6987 42.2395L70.098 41.1752C62.9615 36.1863 61.094 26.541 65.8295 19.2239C70.6983 11.7738 80.7028 9.57871 88.1728 14.4346C95.5761 19.49 98.244 28.5366 91.3742 38.6475ZM84.5712 73.0377C84.5712 73.1042 84.5712 73.1707 84.5712 73.1707C84.5712 73.1707 84.5712 73.1042 84.5712 73.0377ZM57.8926 68.98H58.026C58.026 68.714 57.9593 68.4479 57.8926 68.2483V68.98ZM34.1486 69.1131C33.615 69.6452 33.3483 70.3769 33.4149 71.1087C33.4149 71.7738 33.6817 72.3725 34.1486 72.7716C34.6155 73.3038 35.3491 73.5698 36.0161 73.5698C36.8832 73.5698 37.7502 73.1707 38.3505 72.5055V69.4457C37.7502 68.7805 36.9499 68.3814 36.0161 68.3814C35.3491 68.3814 34.6822 68.6475 34.1486 69.1131ZM21.9432 69.3792C21.8765 69.4457 21.8765 69.4457 21.8098 69.5122C21.3429 69.9778 21.0761 70.643 21.0761 71.3747C21.0761 72.1064 21.3429 72.7716 21.8098 73.3038C22.2766 73.8359 22.9436 74.102 23.6773 74.102C24.3442 74.102 25.0112 73.8359 25.4781 73.3038C25.9449 72.7716 26.2117 72.1064 26.2117 71.3747C26.2117 70.7095 25.9449 70.0443 25.4781 69.5122C24.5443 68.5144 22.9436 68.4479 21.9432 69.3792ZM36.0161 68.3814C35.3491 68.3814 34.6155 68.6475 34.1486 69.1131C33.615 69.6452 33.3483 70.3769 33.4149 71.1087C33.4149 71.7738 33.6817 72.3725 34.1486 72.7716C34.6155 73.3038 35.3491 73.5698 36.0161 73.5698C36.8832 73.5698 37.7502 73.1707 38.3505 72.5055V69.4457C37.7502 68.7805 36.9499 68.3814 36.0161 68.3814ZM57.8926 68.1818V68.9135H58.026C58.0927 68.714 58.026 68.4479 57.8926 68.1818ZM84.5712 73.0377C84.5712 73.1042 84.5712 73.1707 84.5712 73.1707C84.5712 73.1707 84.5712 73.1042 84.5712 73.0377ZM84.5712 73.0377C84.5712 73.1042 84.5712 73.1707 84.5712 73.1707C84.5712 73.1707 84.5712 73.1042 84.5712 73.0377ZM57.8926 68.1818V68.9135H58.026C58.0927 68.714 58.026 68.4479 57.8926 68.1818ZM36.0161 68.3814C35.3491 68.3814 34.6155 68.6475 34.1486 69.1131C33.615 69.6452 33.3483 70.3769 33.4149 71.1087C33.4149 71.7738 33.6817 72.3725 34.1486 72.7716C34.6155 73.3038 35.3491 73.5698 36.0161 73.5698C36.8832 73.5698 37.7502 73.1707 38.3505 72.5055V69.4457C37.7502 68.7805 36.9499 68.3814 36.0161 68.3814ZM57.8926 68.1818V68.9135H58.026C58.0927 68.714 58.026 68.4479 57.8926 68.1818ZM84.5712 73.0377C84.5712 73.1042 84.5712 73.1707 84.5712 73.1707C84.5712 73.1707 84.5712 73.1042 84.5712 73.0377ZM84.5712 73.0377C84.5712 73.1042 84.5712 73.1707 84.5712 73.1707C84.5712 73.1707 84.5712 73.1042 84.5712 73.0377ZM57.8926 68.1818V68.9135H58.026C58.0927 68.714 58.026 68.4479 57.8926 68.1818ZM57.8926 68.1818V68.9135H58.026C58.0927 68.714 58.026 68.4479 57.8926 68.1818ZM84.5712 73.0377C84.5712 73.1042 84.5712 73.1707 84.5712 73.1707C84.5712 73.1707 84.5712 73.1042 84.5712 73.0377ZM84.5712 73.0377C84.5712 73.1042 84.5712 73.1707 84.5712 73.1707C84.5712 73.1707 84.5712 73.1042 84.5712 73.0377ZM57.8926 68.1818V68.9135H58.026C58.0927 68.714 58.026 68.4479 57.8926 68.1818ZM57.8926 68.1818V68.9135H58.026C58.0927 68.714 58.026 68.4479 57.8926 68.1818ZM84.5712 73.0377C84.5712 73.1042 84.5712 73.1707 84.5712 73.1707C84.5712 73.1707 84.5712 73.1042 84.5712 73.0377ZM84.5712 73.0377C84.5712 73.1042 84.5712 73.1707 84.5712 73.1707C84.5712 73.1707 84.5712 73.1042 84.5712 73.0377ZM57.8926 68.1818V68.9135H58.026C58.0927 68.714 58.026 68.4479 57.8926 68.1818ZM84.5712 73.0377C84.5712 73.1042 84.5712 73.1707 84.5712 73.1707C84.5712 73.1707 84.5712 73.1042 84.5712 73.0377ZM84.5712 73.0377C84.5712 73.1042 84.5712 73.1707 84.5712 73.1707C84.5712 73.1707 84.5712 73.1042 84.5712 73.0377ZM84.5712 73.0377C84.5712 73.1042 84.5712 73.1707 84.5712 73.1707C84.5712 73.1707 84.5712 73.1042 84.5712 73.0377ZM84.5712 73.0377C84.5712 73.1042 84.5712 73.1707 84.5712 73.1707C84.5712 73.1707 84.5712 73.1042 84.5712 73.0377Z" fill="white"/>
</svg>
